<svg width="104" height="41" viewBox="0 0 104 41" fill="none" xmlns="http://www.w3.org/2000/svg">
<path d="M34.1602 21.0762C32.8581 21.0241 30.8236 20.998 28.0566 20.998C28.0827 22.3913 28.0957 24.1393 28.0957 26.2422C29.9707 26.2422 31.4779 26.2161 32.6172 26.1641V27.0039C32.0182 26.9714 31.4095 26.9518 30.791 26.9453C30.1725 26.9388 29.2741 26.9355 28.0957 26.9355C28.0957 28.9668 28.1022 30.3958 28.1152 31.2227C28.1283 32.043 28.1576 32.6354 28.2031 33H27.1777L27.2461 30.959C27.3242 28.9928 27.3633 27.4401 27.3633 26.3008C27.3633 25.4089 27.3503 24.5788 27.3242 23.8105C27.2982 23.0423 27.2624 22.1439 27.2168 21.1152L27.1777 20.2754H34.2188L34.1602 21.0762ZM40.127 33.3809C38.9486 33.3809 37.9622 32.9674 37.168 32.1406C36.3802 31.3073 35.9863 30.168 35.9863 28.7227C35.9863 27.0495 36.429 25.7279 37.3145 24.7578C38.1999 23.7878 39.2839 23.3027 40.5664 23.3027C41.582 23.3027 42.5163 23.6934 43.3691 24.4746C44.222 25.2493 44.6484 26.431 44.6484 28.0195C44.6484 29.6667 44.2025 30.972 43.3105 31.9355C42.4251 32.8991 41.3639 33.3809 40.127 33.3809ZM40.3027 23.957C39.1048 23.957 38.2259 24.4193 37.666 25.3438C37.1061 26.2617 36.8262 27.2415 36.8262 28.2832C36.8262 29.5853 37.1452 30.6497 37.7832 31.4766C38.4212 32.3034 39.2676 32.7168 40.3223 32.7168C41.5137 32.7168 42.3958 32.2546 42.9688 31.3301C43.5417 30.4056 43.8281 29.429 43.8281 28.4004C43.8281 27.1309 43.5026 26.0729 42.8516 25.2266C42.2005 24.3802 41.3509 23.957 40.3027 23.957ZM51.3184 33.3809C50.14 33.3809 49.1536 32.9674 48.3594 32.1406C47.5716 31.3073 47.1777 30.168 47.1777 28.7227C47.1777 27.0495 47.6204 25.7279 48.5059 24.7578C49.3913 23.7878 50.4753 23.3027 51.7578 23.3027C52.7734 23.3027 53.7077 23.6934 54.5605 24.4746C55.4134 25.2493 55.8398 26.431 55.8398 28.0195C55.8398 29.6667 55.3939 30.972 54.502 31.9355C53.6165 32.8991 52.5553 33.3809 51.3184 33.3809ZM51.4941 23.957C50.2962 23.957 49.4173 24.4193 48.8574 25.3438C48.2975 26.2617 48.0176 27.2415 48.0176 28.2832C48.0176 29.5853 48.3366 30.6497 48.9746 31.4766C49.6126 32.3034 50.459 32.7168 51.5137 32.7168C52.7051 32.7168 53.5872 32.2546 54.1602 31.3301C54.7331 30.4056 55.0195 29.429 55.0195 28.4004C55.0195 27.1309 54.694 26.0729 54.043 25.2266C53.3919 24.3802 52.5423 23.957 51.4941 23.957ZM63.4863 32.9414C62.9199 33.1107 62.4349 33.1953 62.0312 33.1953C60.8919 33.1953 60.1562 32.8796 59.8242 32.248C59.4922 31.61 59.3262 30.5879 59.3262 29.1816C59.3262 27.4759 59.3327 25.9557 59.3457 24.6211C58.9551 24.6211 58.3496 24.6406 57.5293 24.6797L57.5684 23.8789C58.291 23.918 58.9128 23.9375 59.4336 23.9375C59.4336 23.2279 59.4727 22.2871 59.5508 21.1152L60.4102 21.0566C60.2865 22.5605 60.2246 23.5208 60.2246 23.9375C60.791 23.9375 61.8392 23.9049 63.3691 23.8398L63.3105 24.6797C61.9694 24.6406 60.9212 24.6211 60.166 24.6211C60.127 25.7604 60.1074 27.1016 60.1074 28.6445C60.1074 30.3372 60.2897 31.3984 60.6543 31.8281C61.0254 32.2513 61.5495 32.4629 62.2266 32.4629C62.4154 32.4629 62.6107 32.4466 62.8125 32.4141C63.0143 32.375 63.265 32.3164 63.5645 32.2383L63.4863 32.9414ZM66.6602 24.6602H66.6992C66.9987 24.2891 67.4382 23.9831 68.0176 23.7422C68.597 23.5013 69.2708 23.3809 70.0391 23.3809C71.276 23.3809 72.2461 23.8431 72.9492 24.7676C73.6589 25.6855 74.0137 26.763 74.0137 28C74.0137 29.5169 73.5905 30.7702 72.7441 31.7598C71.9043 32.7493 70.8008 33.2441 69.4336 33.2441C68.8021 33.2441 68.2617 33.1823 67.8125 33.0586C67.3698 32.9349 67.0508 32.7884 66.8555 32.6191H66.7773C66.7773 34.6309 66.7969 36.2454 66.8359 37.4629H65.7812C65.8203 36.623 65.8431 35.6595 65.8496 34.5723C65.8561 33.485 65.8594 32.3197 65.8594 31.0762V29.2598C65.8594 27.8926 65.8431 26.7891 65.8105 25.9492C65.778 25.1094 65.7064 24.3672 65.5957 23.7227L66.5137 23.5176L66.6602 24.6602ZM73.0762 28.1172C73.0762 26.8672 72.7702 25.8971 72.1582 25.207C71.5462 24.5104 70.7064 24.1621 69.6387 24.1621C68.9811 24.1621 68.3984 24.2923 67.8906 24.5527C67.3893 24.8066 66.9661 25.1419 66.6211 25.5586C66.6211 26.1966 66.6374 27.0137 66.6699 28.0098L66.6992 29.9434C66.7122 30.7507 66.7188 31.3887 66.7188 31.8574C67.0247 32.0788 67.3991 32.248 67.8418 32.3652C68.291 32.4824 68.7695 32.541 69.2773 32.541C70.4753 32.541 71.4062 32.1406 72.0703 31.3398C72.7409 30.5326 73.0762 29.4583 73.0762 28.1172ZM81.8555 24.582C81.3346 24.3672 80.7878 24.2598 80.2148 24.2598C79.6094 24.2598 79.082 24.4323 78.6328 24.7773C78.1901 25.1224 77.8646 25.6237 77.6562 26.2812C77.6562 29.3411 77.6823 31.5807 77.7344 33H76.7773C76.8424 31.2161 76.875 29.6146 76.875 28.1953C76.875 26.7174 76.748 25.2331 76.4941 23.7422L77.3535 23.5176C77.5033 24.2923 77.5846 24.8197 77.5977 25.0996H77.7148C78.1185 24.5267 78.5254 24.1003 78.9355 23.8203C79.3522 23.5404 79.7852 23.4004 80.2344 23.4004C80.7487 23.4004 81.3737 23.5078 82.1094 23.7227L81.8555 24.582ZM83.8379 20.0605C84.0137 20.0605 84.1569 20.1387 84.2676 20.2949C84.3783 20.4447 84.4336 20.6204 84.4336 20.8223C84.4336 21.0566 84.375 21.2585 84.2578 21.4277C84.1406 21.597 83.9616 21.6816 83.7207 21.6816C83.5189 21.6816 83.3561 21.6068 83.2324 21.457C83.1152 21.3073 83.0566 21.1283 83.0566 20.9199C83.0566 20.6986 83.125 20.5 83.2617 20.3242C83.4049 20.1484 83.597 20.0605 83.8379 20.0605ZM82.998 23.8008L84.1016 23.5371C84.0299 25.054 83.9941 26.7695 83.9941 28.6836C83.9941 30.2721 84.043 31.7109 84.1406 33H83.1152C83.2129 31.4245 83.2617 29.9857 83.2617 28.6836C83.2617 26.8477 83.1738 25.2201 82.998 23.8008ZM88.2031 24.8359H88.2227C89.2904 23.8789 90.3516 23.4004 91.4062 23.4004C92.5326 23.4004 93.3789 23.6413 93.9453 24.123C94.5182 24.6048 94.8047 25.4447 94.8047 26.6426L94.7949 27.3457C94.7949 27.4564 94.7917 27.6224 94.7852 27.8438C94.7852 28.638 94.7884 29.2793 94.7949 29.7676L94.8047 33H93.8281C93.9844 31.0143 94.0625 28.9538 94.0625 26.8184C94.0625 25.8158 93.7923 25.1289 93.252 24.7578C92.7181 24.3867 92.028 24.2012 91.1816 24.2012C90.0944 24.2012 89.1016 24.6211 88.2031 25.4609C88.1901 25.9362 88.1836 26.75 88.1836 27.9023C88.1836 28.7487 88.1868 29.5495 88.1934 30.3047L88.2129 32.375C88.2129 32.5117 88.2161 32.7201 88.2227 33H87.2852C87.4023 30.5977 87.4609 28.9961 87.4609 28.1953C87.4609 26.8932 87.3307 25.4023 87.0703 23.7227L88.0273 23.5176L88.2031 24.8359ZM102.646 32.9414C102.08 33.1107 101.595 33.1953 101.191 33.1953C100.052 33.1953 99.3164 32.8796 98.9844 32.248C98.6523 31.61 98.4863 30.5879 98.4863 29.1816C98.4863 27.4759 98.4928 25.9557 98.5059 24.6211C98.1152 24.6211 97.5098 24.6406 96.6895 24.6797L96.7285 23.8789C97.4512 23.918 98.0729 23.9375 98.5938 23.9375C98.5938 23.2279 98.6328 22.2871 98.7109 21.1152L99.5703 21.0566C99.4466 22.5605 99.3848 23.5208 99.3848 23.9375C99.9512 23.9375 100.999 23.9049 102.529 23.8398L102.471 24.6797C101.13 24.6406 100.081 24.6211 99.3262 24.6211C99.2871 25.7604 99.2676 27.1016 99.2676 28.6445C99.2676 30.3372 99.4499 31.3984 99.8145 31.8281C100.186 32.2513 100.71 32.4629 101.387 32.4629C101.576 32.4629 101.771 32.4466 101.973 32.4141C102.174 32.375 102.425 32.3164 102.725 32.2383L102.646 32.9414Z" fill="black"/>
<path d="M13.5864 35.4614C11.8547 35.4614 10.2197 35.1025 8.68164 34.3848C7.15495 33.667 5.85612 32.6815 4.78516 31.4282C3.72559 30.1864 2.89958 28.7394 2.30713 27.0874C1.72607 25.424 1.43555 23.6865 1.43555 21.875C1.43555 20.0065 1.73177 18.2633 2.32422 16.6455C2.92806 15.0277 3.77686 13.632 4.87061 12.4585C5.97575 11.285 7.30876 10.3735 8.86963 9.72412C10.4419 9.07471 12.1395 8.75 13.9624 8.75C15.5461 8.75 17.05 9.0861 18.4741 9.7583C19.9097 10.4191 21.0889 11.3534 22.0117 12.561C22.946 13.7801 23.4131 15.1473 23.4131 16.6626C23.4131 17.1867 23.2707 17.688 22.9858 18.1665C22.7124 18.645 22.3193 19.0324 21.8066 19.3286C21.2939 19.6248 20.7129 19.7729 20.0635 19.7729C19.1862 19.7729 18.4798 19.5166 17.9443 19.0039C17.4202 18.4912 17.1582 17.8019 17.1582 16.936C17.1582 16.3778 17.312 15.8936 17.6196 15.4834C17.9272 15.0618 18.3146 14.7428 18.7817 14.5264C19.2489 14.3099 19.7217 14.2017 20.2002 14.2017C19.6191 13.3016 18.7703 12.5667 17.6538 11.9971C16.5487 11.4274 15.3068 11.1426 13.9282 11.1426C12.3901 11.1426 11.0116 11.5869 9.79248 12.4756C8.5848 13.3643 7.63916 14.6289 6.95557 16.2695C6.28337 17.8988 5.94727 19.79 5.94727 21.9434C5.94727 23.1966 6.14665 24.4328 6.54541 25.6519C6.94417 26.8595 7.50244 27.9647 8.22021 28.9673C8.96077 29.9927 9.88932 30.8073 11.0059 31.4111C12.1338 32.0036 13.3529 32.2998 14.6631 32.2998C15.6429 32.2998 16.5715 32.1175 17.4487 31.7529C18.3374 31.377 19.0951 30.8757 19.7217 30.249C20.3255 29.6452 20.8325 28.9901 21.2427 28.2837C21.6528 27.5773 21.9548 26.8424 22.1484 26.0791L24.4385 27.1899C23.8232 29.8446 22.5871 31.8896 20.73 33.3252C18.8843 34.7493 16.5031 35.4614 13.5864 35.4614Z" fill="black"/>
</svg>
